<?xml version="1.0"?>
<svg xmlns="http://www.w3.org/2000/svg" xmlns:xlink="http://www.w3.org/1999/xlink" xmlns:svgjs="http://svgjs.com/svgjs" version="1.1" width="512" height="512" x="0" y="0" viewBox="0 0 512 512" style="enable-background:new 0 0 512 512" xml:space="preserve" class=""><g><g xmlns="http://www.w3.org/2000/svg"><rect x="216" y="144" width="16" height="24" fill="#ffc900" data-original="#000000" style="" class=""/><rect x="280" y="144" width="16" height="24" fill="#ffc900" data-original="#000000" style="" class=""/><path d="M232.845,332.422,227.056,344H216v16h16a8,8,0,0,0,7.155-4.422l8-16Z" fill="#ffc900" data-original="#000000" style="" class=""/><path d="M279.155,332.422l-14.31,7.156,8,16A8,8,0,0,0,280,360h16V344H284.944Z" fill="#ffc900" data-original="#000000" style="" class=""/><path d="M440.469,344.953,356.6,310.418l-21.243-49.569a8,8,0,0,0-14.509-.427l-1.93,3.861-4.854-17.8,12.161-10.424A27.966,27.966,0,0,0,336,214.8V192h12a28.032,28.032,0,0,0,28-28V148a28.035,28.035,0,0,0-16-25.3V74a58.066,58.066,0,0,0-58-58H210a58.066,58.066,0,0,0-58,58v48.7A28.035,28.035,0,0,0,136,148v16a28.032,28.032,0,0,0,28,28h12v23.159a27.951,27.951,0,0,0,9.868,21.335L197.88,246.7l-4.795,17.58-1.93-3.861a8,8,0,0,0-14.509.427L155.4,310.418,71.531,344.953A37.876,37.876,0,0,0,48,380.091V488a8,8,0,0,0,8,8H456a8,8,0,0,0,8-8V380.091A37.876,37.876,0,0,0,440.469,344.953Zm-97.955-26.78-19.592,19.591-10.16-25.4,14.679-29.359ZM324.5,367.812l40.782,40.782L308.155,480H298.1ZM192,129.541,203.338,101.2l39.541,32.951a8,8,0,0,0,12.549-3.175l11.91-29.776,39.541,32.951A8,8,0,0,0,312,136h8v68.9l-61.47-20.49a7.992,7.992,0,0,0-5.06,0L192,204.9ZM360,164a12.013,12.013,0,0,1-12,12H336V136h12a12.013,12.013,0,0,1,12,12ZM210,32h92a42.047,42.047,0,0,1,42,42v46H314.9L269.121,81.854a8,8,0,0,0-12.549,3.175l-11.91,29.776L205.121,81.854a8,8,0,0,0-12.549,3.175L178.584,120H168V74A42.047,42.047,0,0,1,210,32ZM164,176a12.013,12.013,0,0,1-12-12V148a12.013,12.013,0,0,1,12-12h12v40Zm29.641,45.219L256,200.433l62.179,20.726a12.043,12.043,0,0,1-2.369,2.753l-43.4,37.2A12.008,12.008,0,0,1,264.6,264H247.351a12.011,12.011,0,0,1-7.772-2.856L196.229,224.3A11.993,11.993,0,0,1,193.641,221.219ZM213.9,480H203.845L146.72,408.594,187.5,367.812Zm-29.34-196.995,14.679,29.359-10.16,25.4-19.592-19.591ZM64,380.091a21.93,21.93,0,0,1,13.623-20.343l78.491-32.32L180.686,352l-50.343,50.343a8,8,0,0,0-.59,10.655l53.6,67H64ZM230.336,480l-29.97-127.374,15.062-37.655a8,8,0,0,0-.273-6.549l-11.339-22.678,7.527-27.6,17.875,15.191A28.029,28.029,0,0,0,247.351,280H264.6a28.016,28.016,0,0,0,18.221-6.741l17.8-15.253,7.565,27.738-11.339,22.678a8,8,0,0,0-.273,6.549l15.062,37.655L281.664,480ZM448,480H328.645l53.6-67a8,8,0,0,0-.59-10.655L331.314,352l24.572-24.572,78.491,32.32A21.93,21.93,0,0,1,448,380.091Z" fill="#ffc900" data-original="#000000" style="" class=""/></g></g></svg>
